P2
# mc102.pgm
26 8
255
0 0 0 0 0 0 0 0 0 0 0 0 0 0 0 0 0 0 0 0 0 0 0 0 0 0
0 50 0 0 0 50 0 100 100 100 100 0 0 150 0 0 0 200 200 0 0 0 250 250 0 0
0 50 50 0 50 50 0 100 0 0 0 0 150 150 0 0 200 0 0 200 0 250 0 0 250 0
0 50 0 50 0 50 0 100 0 0 0 0 0 150 0 0 200 0 0 200 0 0 0 0 250 0
0 50 0 0 0 50 0 100 0 0 0 0 0 150 0 0 200 0 0 200 0 0 0 250 0 0
0 50 0 0 0 50 0 100 0 0 0 0 0 150 0 0 200 0 0 200 0 0 250 0 0 0
0 50 0 0 0 50 0 100 100 100 100 0 150 150 150 0 0 200 200 0 0 250 250 250 250 0
0 0 0 0 0 0 0 0 0 0 0 0 0 0 0 0 0 0 0 0 0 0 0 0 0 0
